/* XPM */
static char *a12coin16[] = {
/* columns rows colors chars-per-pixel */
"16 16 133 2 ",
"   c #1C1E22",
".  c #1D1E22",
"X  c #1D1E23",
"o  c #1E1F22",
"O  c #1F2023",
"+  c #1F2024",
"@  c #202123",
"#  c #242527",
"$  c #242528",
"%  c #2B2B28",
"&  c #2E2E30",
"*  c #2F2F30",
"=  c #2F3031",
"-  c #313233",
";  c #323333",
":  c #4B4C47",
">  c #4E4F4A",
",  c #504F46",
"<  c #565245",
"1  c #50504A",
"2  c #747973",
"3  c #767A73",
"4  c #84826E",
"5  c #85836E",
"6  c #818274",
"7  c #828274",
"8  c #838475",
"9  c #848576",
"0  c #7195CF",
"q  c #6A93D8",
"w  c #6C95DB",
"e  c #779CD2",
"r  c #799CD2",
"t  c #7298D9",
"y  c #789FDE",
"u  c #578BEB",
"i  c #6795E7",
"p  c #6E99E6",
"a  c #6292EB",
"s  c #6795E9",
"d  c #6B98E8",
"f  c #769FE3",
"g  c #729CE4",
"h  c #6A9CF8",
"j  c #699DFA",
"k  c #8F9384",
"l  c #919181",
"z  c #909483",
"x  c #949483",
"c  c #969784",
"v  c #979786",
"b  c #9D9C85",
"n  c #9A9B8B",
"m  c #9C9C89",
"M  c #9D9D8A",
"N  c #9C9C8B",
"B  c #A0A18B",
"V  c #A1A18C",
"C  c #B8B8A1",
"Z  c #BBBBA1",
"A  c #B0BFBA",
"S  c #C0C0A7",
"D  c #839FC3",
"F  c #86A4CC",
"G  c #89A6CA",
"H  c #8AA8CF",
"J  c #91AACB",
"K  c #92ADCB",
"L  c #97AFC9",
"P  c #9DB3C1",
"I  c #81A2D0",
"U  c #86A8D6",
"Y  c #86A7D8",
"T  c #8DADD9",
"R  c #94B0D1",
"E  c #94B4DD",
"W  c #A2B8C7",
"Q  c #A6BAC4",
"!  c #AEBFC1",
"~  c #A0B8CF",
"^  c #A5BFD7",
"/  c #AFC0C8",
"(  c #B8C6C2",
")  c #B0C4CC",
"_  c #B9CACC",
"`  c #ABC1D2",
"'  c #ADC2D0",
"]  c #B0C7DB",
"[  c #B8CBDA",
"{  c #C3CEC4",
"}  c #C3D1C9",
"|  c #C6D3CB",
" . c #C9D6CB",
".. c #CDDACB",
"X. c #D2DCC8",
"o. c #CADAD8",
"O. c #DAE0C5",
"+. c #DCE5CC",
"@. c #E0E5C4",
"#. c #E3E9C1",
"$. c #EAEEC3",
"%. c #EAECC5",
"&. c #EDEEC5",
"*. c #E3EACC",
"=. c #F6F7C3",
"-. c #F1F2C6",
";. c #F7F7C4",
":. c #FFFFC4",
">. c #FFFFC6",
",. c #FFFFC7",
"<. c #F1F1CB",
"1. c #F6F7CA",
"2. c #F3F3CC",
"3. c #F5F5CD",
"4. c #F8F7CF",
"5. c #FAFAC9",
"6. c #FCFBC9",
"7. c #FCFCC9",
"8. c #FFFFC8",
"9. c #FFFFCA",
"0. c #FFFFCB",
"q. c #FFFFCC",
"w. c #FFFFCD",
"e. c #FFFFCE",
"r. c #FFFFCF",
"t. c #FBFCD3",
"y. c #FFFFDA",
"u. c #FFFFDB",
"i. c #FFFFDC",
"p. c #FEFFDF",
"a. c LightYellow",
"s. c #FFFFE1",
"d. c None",
/* pixels */
"d.d.d.d.d.d.d.d.d.d.d.d.d.d.d.d.",
"d.d.d.d.d.d.d.d.% % d.d.d.d.d.d.",
"d.d.d.d.d.@ > 2 z z 2 1 @ d.d.d.",
"d.d.d.d.- M <.E j j ^ 2.n ; d.d.",
"d.d.d.; S a.e._ t w X.e.a.S ; d.",
"d.d.+ M a.0.,.f  .` T 0.0.a.M + ",
"d.d.> 4.e.e.%.u R Y a ;.e.e.4.> ",
"d.d.9 u.0.0./ g ) ) i | 0.0.u.8 ",
"d.# m u.0.#.s ~ ,.:.U f $.0.u.B ",
"d.# m u.,.G d e -.@.q p Q 0.u.B ",
"d.d.6 u.e.6.A P 0.} D ! 5.0.u.6 ",
"d.d.: 1.e.e.+.H ,.L O.r 1.e.3.: ",
"d.d.. v a.e.*.K e.&.F ( 0.a.c . ",
"d.d.d.= C a...0 ;.I W J p.C = d.",
"d.d.d.d.* x { ] t.o.[ ! z * d.d.",
"d.d.d.d.d.. , 4 v b 4 < . d.d.d."
};
