/* XPM */
static char *a12coin32[] = {
/* columns rows colors chars-per-pixel */
"32 32 156 2 ",
"   c #2C2D2F",
".  c #2E2F30",
"X  c #2F3031",
"o  c #333434",
"O  c #3D3E3C",
"+  c #3F403E",
"@  c #40413E",
"#  c #464743",
"$  c #4B4B46",
"%  c #54554F",
"&  c #595A52",
"*  c #64655B",
"=  c #747567",
"-  c #797A6B",
";  c #848167",
":  c #848168",
">  c #898A7B",
",  c #4A79D5",
"<  c #4D7ED9",
"1  c #457BE3",
"2  c #497EE3",
"3  c #6888BD",
"4  c #7792B9",
"5  c #5983D5",
"6  c #5384DB",
"7  c #5C8ADB",
"8  c #6B8ECC",
"9  c #6C92CF",
"0  c #7B99C2",
"q  c #7396CA",
"w  c #7698CE",
"e  c #7B9CCE",
"r  c #648DD3",
"t  c #658FDF",
"y  c #6790D2",
"u  c #6B92D3",
"i  c #6D95DD",
"p  c #7296D1",
"a  c #779BD4",
"s  c #4981EF",
"d  c #5081E0",
"f  c #5084EA",
"g  c #5F8EE9",
"h  c #4983F0",
"j  c #4D8AFD",
"k  c #4482F4",
"l  c #558CF4",
"z  c #598EF3",
"x  c #528CFC",
"c  c #588FF9",
"v  c #5C91F5",
"b  c #5691FF",
"n  c #5C94FE",
"m  c #6290E4",
"M  c #6D97E0",
"N  c #6693E8",
"B  c #729BE5",
"V  c #6395F3",
"C  c #6397F9",
"Z  c #6298FF",
"A  c #9C9D89",
"S  c #9FA08B",
"D  c #A9A685",
"F  c #A2A28E",
"G  c #B8B58F",
"H  c #A2A391",
"J  c #ADAD94",
"K  c #B2AF94",
"L  c #B4B59B",
"P  c #BABA9E",
"I  c #839EBD",
"U  c #8BA3BD",
"Y  c #8CA2B2",
"T  c #96A8B2",
"R  c #9FAFB5",
"E  c #94AABF",
"W  c #A2AEAF",
"Q  c #BFBFA3",
"!  c #B4BBAB",
"~  c #AAB6B1",
"^  c #ABBAB7",
"/  c #A5B5B9",
"(  c #ADBBBD",
")  c #B0BEBC",
"_  c #BDC1A5",
"`  c #BDC3AC",
"'  c #B5C2BC",
"]  c #BAC5BC",
"[  c #BDC9BE",
"{  c #C9CBAA",
"}  c #D5D4AB",
"|  c #C0C7B1",
" . c #C2C9B2",
".. c #C4CDBA",
"X. c #CBD2BB",
"o. c #D3D3B0",
"O. c #D8DAB5",
"+. c #D2D5B8",
"@. c #D7DAB8",
"#. c #D9DBBC",
"$. c #DFE1BD",
"%. c #E3E2B3",
"&. c #EEEAB7",
"*. c #E4E5BB",
"=. c #E7E9BE",
"-. c #EDECBC",
";. c #F1EFBE",
":. c #FEF6B7",
">. c #F6F2BB",
",. c #FCF7B9",
"<. c #FEFABB",
"1. c #829FC1",
"2. c #819FCA",
"3. c #8DA6C4",
"4. c #86A3CB",
"5. c #8CA7C8",
"6. c #8FAACC",
"7. c #96ACC1",
"8. c #93AECC",
"9. c #9AB0C6",
"0. c #9FB8CF",
"q. c #97B4D5",
"w. c #9EBAD9",
"e. c #A2B6C2",
"r. c #AABBC3",
"t. c #AABDC9",
"y. c #A0BAD4",
"u. c #A1BCD8",
"i. c #AFC0C6",
"p. c #B4C4C3",
"a. c #BBC7C2",
"s. c #B7C7C8",
"d. c #B6C9CC",
"f. c #BECDCD",
"g. c #D0D6C1",
"h. c #D1DBCD",
"j. c #E5E5C4",
"k. c #EBECC3",
"l. c #E7E8C8",
"z. c #E9EBCA",
"x. c #F1EEC4",
"c. c #F1F3C5",
"v. c #FBF7C1",
"b. c #FEFCC4",
"n. c #F5F5CC",
"m. c #FFFFCC",
"M. c #F2F2D0",
"N. c #FFFFD3",
"B. c #FFFFD8",
"V. c #FFFFDA",
"C. c #FFFFDB",
"Z. c #FFFFDC",
"A. c #FFFFDB",
"S. c LightYellow",
"D. c None",
"F. c black",
/* pixels */
"D.D.D.D.D.D.D.D.D.D.D.D.D.D.D.D.D.D.D.D.D.D.D.D.D.D.D.D.D.D.D.D.",
"D.D.D.D.D.D.D.D.D.D.D.D.D.D.O O + O @ D.D.D.D.D.D.D.D.D.D.D.D.D.",
"D.D.D.D.D.D.D.D.D.D.D.O o       . . . . o O D.D.D.D.D.D.D.D.D.D.",
"D.D.D.D.D.D.D.D.D.O o . % ; D G G G D : $   o O D.D.D.D.D.D.D.D.",
"D.D.D.D.D.D.D.D.o . * Q g.q.u.y.u.0.w.0.k.Q *   o D.D.D.D.D.D.D.",
"D.D.D.D.D.D.O o O L Z.Z.p.1 z n x n l , =.Z.V.L @ o + D.D.D.D.D.",
"D.D.D.D.D.O X % j.V.m.m.c.} y C 3 n U %.n.m.m.V.j.% X + D.D.D.D.",
"D.D.D.D.D.o % M.B.m.m.m.N.#.l B _ b i v.N.m.m.m.B.M.% o D.D.D.D.",
"D.D.D.D.o # j.B.m.m.m.m.m.7.j 8.:.i x ..m.m.m.m.m.B.j.@ o D.D.D.",
"D.D.D.O   P V.m.m.m.m.m.>.i x ..m.E j 6.m.m.m.m.m.m.V.P   + D.D.",
"D.D.D.o * B.m.m.m.m.m.m...l i <.N.@.z m &.N.m.m.m.m.m.B.* o D.D.",
"D.D.O   Q B.m.m.m.m.m.b.3.b p ) r./ N x ' m.m.m.m.m.m.B._   O D.",
"D.D.o $ n.N.m.m.m.m.m.&.t Z l h s s v n 4.b.m.m.m.m.m.m.n.$ o D.",
"D.D.X - V.m.m.m.m.m.m.] x M  .....X.~ v g *.m.m.m.m.m.m.V.- o D.",
"D.@ . A V.m.m.m.m.m.m.4.j 9.m.m.m.N.b.u x r.m.m.m.m.m.m.V.S   O ",
"D.O . J V.m.m.m.m.m.%.m z o.m.m.m.m.b./ x w :.m.m.m.m.m.B.L X O ",
"D.+   J V.m.m.m.c.4 p Z V q / m.m.k.I p Z C q ^ m.m.m.m.B.P   + ",
"D.O   J V.m.m.m.=.d l V V j 0 m.N.*.6 v N v k I b.m.m.m.B.L   O ",
"D.+   A V.m.m.m.b.+.X. ._ ` $.m.m.m.{ W ! O.X.*.N.m.m.m.V.A   @ ",
"D.D.X = V.m.m.m.m.m.b.Y 6 4.b.m.m.#.u r 7 9.m.m.m.m.m.m.V.= X D.",
"D.D.o $ n.m.m.m.m.m.m.=.e u v.N.b.u a &.] 1 X.N.m.m.m.m.n.# o D.",
"D.D.O   L V.m.m.m.m.m.m.8.u v.N.>., r.N.%.2 a.m.m.m.m.V.L   @ D.",
"D.D.D.o & V.m.m.m.m.m.m.6.u v.m.n.] k.*.y r k.N.m.m.m.V.& o D.D.",
"D.D.D.O   J Z.m.m.m.m.b.6.u v.N.m.N.+.6 y &.m.m.m.m.Z.J   + D.D.",
"D.D.D.D.O O @.V.m.m.m.m.6.u v.m.N.+.2 4.>.U [ m.m.B.#.O o D.D.D.",
"D.D.D.D.D.o $ j.V.m.m.b.6.9 <.m.v.u e <.<.5 t.m.V.l.$ o D.D.D.D.",
"D.D.D.D.D.# X $ +.S.m.T 6 s 4 m.$.1 r p 8 1 p.Z.+.$ o @ D.D.D.D.",
"D.D.D.D.D.D.O o o A N.h.s.p.] m.c.' i.t.d.g.z.F o o O D.D.D.D.D.",
"D.D.D.D.D.D.D.D.O   % J x.B.V.V.V.V.V.B.x.K %   O D.D.D.D.D.D.D.",
"D.D.D.D.D.D.D.D.D.O o   O * > F F F > * O   o + D.D.D.D.D.D.D.D.",
"D.D.D.D.D.D.D.D.D.D.D.D.O X           o O D.D.D.D.D.D.D.D.D.D.D.",
"D.D.D.D.D.D.D.D.D.D.D.D.D.D.D.+ + O D.D.D.D.D.D.D.D.D.D.D.D.D.D."
};
