/* XPM */
static char *a12coin64[] = {
/* columns rows colors chars-per-pixel */
"64 64 181 2 ",
"   c #2C2D2E",
".  c #2D2F30",
"X  c #2F3031",
"o  c #333434",
"O  c #373837",
"+  c #383937",
"@  c #3D3E3C",
"#  c #3F403D",
"$  c #40413E",
"%  c #4D4E48",
"&  c #4A4B45",
"*  c #56574E",
"=  c #5A5A52",
"-  c #5F6056",
";  c #626257",
":  c #65655B",
">  c #6F7063",
",  c #727365",
"<  c #7A7B6B",
"1  c #848574",
"2  c #888976",
"3  c #8D8E7A",
"4  c #8F907C",
"5  c #90917B",
"6  c #5F7084",
"7  c #5576AB",
"8  c #4D75BB",
"9  c #4C72B0",
"0  c #5077B9",
"q  c #587CBA",
"w  c #637DA9",
"e  c #627DA7",
"r  c #3C6ED4",
"t  c #456FC0",
"y  c #4671C6",
"u  c #4A79C8",
"i  c #557EC2",
"p  c #557EC7",
"a  c #497CDD",
"s  c #7F8B8C",
"d  c #77899C",
"f  c #7B8B9A",
"g  c #70849F",
"h  c #5C81BF",
"j  c #6D84A3",
"k  c #6883A9",
"l  c #768AA3",
"z  c #748CAC",
"x  c #798DA1",
"c  c #7D91A5",
"v  c #7C92AD",
"b  c #6C87B1",
"n  c #6283BB",
"m  c #6C8ABE",
"M  c #6B89B6",
"N  c #748FB2",
"B  c #7B94B0",
"V  c #5E83C1",
"C  c #5680CD",
"Z  c #5A84CD",
"A  c #5481D5",
"S  c #5B83D1",
"D  c #5583DD",
"F  c #5A86D9",
"G  c #5D88D5",
"H  c #6185C2",
"J  c #648ACB",
"K  c #4E84EA",
"L  c #4E81E2",
"P  c #5284E3",
"I  c #5C8AE4",
"U  c #5386EB",
"Y  c #5589EB",
"T  c #588AEA",
"R  c #4C8AFD",
"E  c #558AF4",
"W  c #5A8DF0",
"Q  c #568DFB",
"!  c #5791FF",
"~  c #5B94FE",
"^  c #5E99FF",
"/  c #6292EB",
"(  c #6294F6",
")  c #6397FA",
"_  c #669BFF",
"`  c #689EFF",
"'  c #65A0FF",
"]  c #69A0FF",
"[  c #989984",
"{  c #818F99",
"}  c #8A979C",
"|  c #939E9A",
" . c #949C95",
".. c #9BA39B",
"X. c #98A197",
"o. c #A3A48B",
"O. c #A7A88E",
"+. c #AAA98D",
"@. c #B2B08F",
"#. c #ACAC93",
"$. c #A9AF9C",
"%. c #A4A894",
"&. c #AEB097",
"*. c #ABB19E",
"=. c #B2B396",
"-. c #B2B49C",
";. c #BBBB9E",
":. c #B9B995",
">. c #8394A5",
",. c #8C9BA3",
"<. c #8195AA",
"1. c #899CAB",
"2. c #939FA1",
"3. c #819AB9",
"4. c #8FA0A5",
"5. c #94A2A3",
"6. c #92A2A9",
"7. c #A3ACA2",
"8. c #ADB4A4",
"9. c #B2B7A2",
"0. c #B5BAA3",
"q. c #B9BDA3",
"w. c #B6BBA8",
"e. c #C0BB90",
"r. c #BEC1A4",
"t. c #D0CA98",
"y. c #C3C3A4",
"u. c #C7CAA7",
"i. c #CBCCAC",
"p. c #C7C8A8",
"a. c #CFD0AC",
"s. c #D3D1A6",
"d. c #D3D3AC",
"f. c #D9D7AA",
"g. c #DCDAAC",
"h. c #D3D4B3",
"j. c #DDDEB8",
"k. c #E6DFA6",
"l. c #E1DDAE",
"z. c #DFE0B9",
"x. c #E6E2AE",
"c. c #EDE6AC",
"v. c #F0E8AC",
"b. c #E6E3B2",
"n. c #EBE6B2",
"m. c #EEEAB4",
"M. c #E4E4BD",
"N. c #ECEABB",
"B. c #E8E5BA",
"V. c #F1ECB3",
"C. c #F1EDBB",
"Z. c #F7F2B7",
"A. c #F9F2B4",
"S. c #F5F1BA",
"D. c #F9F4BA",
"F. c #FDFABE",
"G. c #EBEBC4",
"H. c #EBEBC6",
"J. c #EFF0C3",
"K. c #F4F3C2",
"L. c #FEFCC4",
"P. c #F4F4CD",
"I. c #FFFFCB",
"U. c #FFFFCA",
"Y. c #FFFFC9",
"T. c #FFFFCC",
"R. c #FFFFCD",
"E. c #FFFFCE",
"W. c #FFFFCC",
"Q. c #FAF7C0",
"!. c #FFFFD1",
"~. c #FFFFD3",
"^. c #FFFFD6",
"/. c #FFFFD3",
"(. c #FFFFD9",
"). c #FFFFDD",
"_. c #FFFFDE",
"`. c #FFFFDB",
"'. c LightYellow",
"]. c None",
"[. c black",
/* pixels */
"].].].].].].].].].].].].].].].].].].].].].].].].].].].].].].].].].].].].].].].].].].].].].].].].].].].].].].].].].].].].].].].].",
"].].].].].].].].].].].].].].].].].].].].].].].].].].].].].].].].].].].].].].].].].].].].].].].].].].].].].].].].].].].].].].].].",
"].].].].].].].].].].].].].].].].].].].].].].].].].].].].].@ @ @ @ @ @ @ ].].].].].].].].].].].].].].].].].].].].].].].].].].].].",
"].].].].].].].].].].].].].].].].].].].].].].].].].@ @ @ @ # @ @ @ @ @ @ @ @ @ @ ].].].].].].].].].].].].].].].].].].].].].].].].",
"].].].].].].].].].].].].].].].].].].].].].].@ @ @ @ @ @ # @ # @ @ # # # @ @ @ @ @ @ @ ].].].].].].].].].].].].].].].].].].].].].",
"].].].].].].].].].].].].].].].].].].].# @ @ @ @ @ @ o . . X . . o . . . . . o @ @ @ @ @ @ @ ].].].].].].].].].].].].].].].].].].",
"].].].].].].].].].].].].].].].].].].@ @ @ @ @ .   + - 1 #.;.y.y.y.y.r.;.#.1 - + . o @ @ @ @ @ ].].].].].].].].].].].].].].].].].",
"].].].].].].].].].].].].].].].].@ @ @ @ +   + > =.N.T././.T.T.T.T.U./.T././.U.G.#.> + . + @ @ @ @ ].].].].].].].].].].].].].].].",
"].].].].].].].].].].].].].].].@ @ # @ . @ 3 j._.H.c v N v v v v v v v v v v b 8._.`.M.2 @ . + # @ @ ].].].].].].].].].].].].].].",
"].].].].].].].].].].].].].@ @ @ @ . o 3 H._./.^.i.a ^ ~ ~ ~ ~ ~ ~ ~ ~ ~ ~ ~ R >.U.U.^._.H.2 o o $ @ @ @ ].].].].].].].].].].].].",
"].].].].].].].].].].].].@ @ @ @   = h._./.U.T./.i.a _ _ _ _ _ _ _ _ _ _ _ _ Q >.U.T.U.U./._.h.=   @ # @ @ ].].].].].].].].].].].",
"].].].].].].].].].].].@ @ $ +   2 ^.`.T.T.T.T./.z.j N j G _ _ ( I _ _ ) k N k ..T.T.T.T.T.T.^.^.2 . + # @ @ ].].].].].].].].].].",
"].].].].].].].].].].@ @ # + X #.'.T.T.T.T.T.T.T.T.Y.L.t.A _ ` J 6 _ _ ~ { F.Q.T.T.T.T.T.T.T.T./.'.#.X O @ @ @ ].].].].].].].].].",
"].].].].].].].].].@ @ # O + y.'.T.T.T.T.T.T.T.T.T./.U.>.Q _ ) 3.@.T _ _ H b.^.T.T.T.T.T.T.T.T.T.T.'.y.+ + @ @ @ ].].].].].].].].",
"].].].].].].].].].@ @ + o y.'.T.T.T.T.T.T.T.T.T.U./.m.n _ _ E 8.V.i _ _ U 8./.T.T.T.T.T.T.T.T.T.T.T.'.p.o + @ @ ].].].].].].].].",
"].].].].].].].].@ @ @   #._.T.T.T.T.T.T.T.T.T.T.T./.;.P _ _ S g.T.>.) _ ) N Q.T.T.T.T.T.T.T.T.T.T.T.T.'.#.  @ @ @ ].].].].].].].",
"].].].].].].].@ @ @   5 _.T.T.T.T.T.T.T.T.T.T.T.T.Y.>.~ _ ) N L./.0.P _ _ S f./.T.T.T.T.T.T.T.T.T.T.T.T.'.5   @ @ @ ].].].].].].",
"].].].].].].].@ @ o ; `.T.T.T.T.T.T.T.T.T.T.T.T./.b.q _ _ E 7././.x.V _ _ U 7./.T.T.T.T.T.T.T.T.T.T.T.T.T.^.; . @ @ ].].].].].].",
"].].].].].].@ @ + o j.^.T.T.T.T.T.T.T.T.T.T.T.T./.-.P ` _ C f.^.U.Y.>.~ _ ) N F.T.T.T.T.T.T.T.T.T.T.T.T.U.`.j.o @ @ @ ].].].].].",
"].].].].].@ @ $ . 3 _.U.T.T.T.T.T.T.T.T.T.T.T.T.L.v ) _ ) N F.T.U./.-.U _ _ a s.^.T.T.T.T.T.T.T.T.T.T.T.T.U._.5   @ @ @ ].].].].",
"].].].].].@ @ + $ G./.T.T.T.T.T.T.T.T.T.T.T.T.^.l.Z _ _ W 7./.T.T./.b.H _ _ E 2.T.T.T.T.T.T.T.T.T.T.T.T.T.T./.G.& + @ @ ].].].].",
"].].].].].@ @ . 3 _.U.T.T.T.T.T.T.T.T.T.T.T.U./.7.U _ _ Z n.^.T./.T.U.1.~ _ _ M S.T.T.T.T.T.T.T.T.T.T.T.T.T.U._.2   # @ ].].].].",
"].].].].@ @ @ + M./.T.T.T.T.T.T.T.T.T.T.T.T.T.Q.z ^ _ _ w &.9.8.8.8.0.s W _ _ D y.^.T.T.T.T.T.T.T.T.T.T.T.T.T.^.M.o + @ @ ].].].",
"].].].].@ @ . , `.T.T.T.T.T.T.T.T.T.T.T.T.T./.f.C ` _ _ ( U U U U U U W _ _ _ ~ ,.T.T.T.T.T.T.T.T.T.T.T.T.T.T.T.`., o @ @ ].].].",
"].].].].@ #   =.`.U.T.T.T.T.T.T.T.T.T.T.T.T.T.7.E _ _ _ ` ] ` ` ] ` ] ] ` _ _ _ H m./.T.T.T.T.T.T.T.T.T.T.T.T.U.`.=.  # @ ].].].",
"].].].@ @ @ + G./.U.T.T.T.T.T.T.T.T.T.T.T.T.D.M ) _ _ F Z C Z C Z C Z C C ( _ _ P q./.U.T.T.T.T.T.T.T.T.T.T.T.T./.M.+ @ @ @ ].].",
"].].].@ @ o = /.T.T.T.T.T.T.T.T.T.T.T.T.T.^.u.A _ _ T %.l.g.g.g.g.g.g.g.t.n _ _ ~ >.Y.T.T.T.T.T.T.T.T.T.T.T.T.T.T.^.- o @ @ ].].",
"].].].@ @ . 2 `.U.T.T.T.T.T.T.T.T.T.T.T.T.T.5.Q _ _ H m.^././././././.T.T.} Q _ _ V x./.T.T.T.T.T.T.T.T.T.T.T.T.T.`.1   @ @ ].].",
"].].].@ # . O.`.T.T.T.T.T.T.T.T.T.T.T.T./.S.M ) _ ~ 1.L.T.T.T.T.T.T.T.T.^.r.P ` _ U 9./.T.T.T.T.T.T.T.T.T.T.T.T.U._.O.  $ @ ].].",
"].].@ @ @ . ;.^.U.T.T.T.T.T.T.T.T.T.U.U./.y.D _ _ T w./.T.T.T.T.T.T.T.U.T.V.n _ _ ^ v Q.T.T.T.T.T.T.T.T.T.T.T.T.T._.e.o @ @ @ ].",
"].].@ @ # . r.^.T.T.T.T.T.T.T.T.T./././.U.,.! _ _ J m.`./.T.T.T.T.T.T././.T.,.~ _ _ Z l.^././.U.T.T.T.T.T.T.T.T.T.^.d.O @ @ @ ].",
"].].@ @ @ o y.^.T.T.T.T.T.T.T.T.T.K.x.n.t.m _ _ ~ f c.k.C.T.T.T.T.T.T.K.x.m.+.A _ _ W  .n.x.K.T.T.T.T.T.T.T.T.T.T.^.h.o @ @ @ ].",
"].].@ @ @   y.^.T.T.T.T.T.T.T.U./.X.0 V i ( _ _ _ Z V V j F.W.W.T.T.T.| 8 V V / ` _ _ F h i { Y.U.T.T.T.T.T.T.T.T.^.f.O @ @ @ ].",
"].].@ @ @ o q.^.T.T.T.T.T.T.T.T.T.5.~ ' ` _ _ _ _ ' ^ ' m S.!.W.T.T.U.6.! _ ` _ _ _ _ _ _ ^ z F.U.U.T.T.T.T.T.T.T.^.h.o @ @ @ ].",
"].].@ @ # X y.^.T.T.T.T.T.T.T.U.T.,.! _ _ _ _ ' _ _ _ ^ n Z.!.W.T.T.T.4.! ' _ _ _ _ _ _ _ ^ l L.T.T.T.T.T.T.T.T.T.^.s.o @ @ @ ].",
"].].@ @ #   ;.^.T.T.T.T.T.T.T.T./...0 H n h V m H H V h g Q.!.W.T.T./.X.0 H H H H V n h n i { U.T.T.T.T.T.T.T.T.U.`.;.X @ @ @ ].",
"].].].@ @   o.`.U.T.T.T.T.T.T.T.T.L.B.m.n.m.Z.A.A.A.A.V.S.!.W.W.T.T.T.U.D.v.x.k.v.D.m.m.m.n.K.T.T.T.T.T.T.T.T.T.U.`.o.  @ @ ].].",
"].].].@ # . < _.T.T.T.T.T.T.T.T.T.T./.T.!.I.5.6.6.6.X.N./.W.W.W.T.U./.Q.9.<.m M <.0.Y./.T././.T.T.T.T.T.T.T.T.T.U._.< . # @ ].].",
"].].].@ @ o * /.T.T.T.T.T.T.T.T.T.T.U.T.!.S.9 R ! ~ u u./.W.W.W.T./.C.d P ! E Q ~ P x C./.U.T.T.T.T.T.T.T.T.T.T.T./.* + @ @ ].].",
"].].].@ @ @ o j.^.T.T.T.T.T.T.T.T.T.T.T.W.L.} l h ' S d.!.W.W.W.T.T.} E ^ b 8.7.n _ E } U.U.T.T.T.T.T.T.T.T.T.T.^.j.o @ @ @ ].].",
"].].].].@ $   o.`.U.T.T.T.T.T.T.T.T.T.T.T.T.T.Y.c ~ Z d.!.I.W.W./.x.V ^ b v././.s.V _ V b./.T.T.T.T.T.T.T.T.T.T.`.o.  @ @ ].].].",
"].].].].@ @ o ; ^.U.T.T.T.T.T.T.T.T.T.T.T.T.U.Y.v ~ Z d.!.W.W.W./.r.P Q 7./.U.T.L.c ^ D i./.T.T.T.T.T.T.T.T.T.T.^.; o @ @ ].].].",
"].].].].@ @ @ o h.^.T.T.T.T.T.T.T.T.T.T.T.T.U.U.v ^ S s./.W.W.W./.8.Q E q./.U.T.F.z _ D d./.T.T.T.T.T.T.T.T.U.^.h.o @ @ @ ].].].",
"].].].].].@ @   < _.U.T.T.T.T.T.T.T.T.T.T.T.U.Y.v ~ Z s./.W.W.W./.$.y 8 q./.T./.:.F _ n m./.T.T.T.T.T.T.T.T.U.`.<   @ @ ].].].].",
"].].].].].@ @ @ o z.^.T.T.T.T.T.T.T.T.T.T.T.T.U.v ^ Z s./.T.T.T.T.G.d.d.K.^.U.=.i ' L *./.U.T.T.T.T.T.T.T.T.^.j.o @ @ @ ].].].].",
"].].].].].].@ @   < _.U.T.T.T.T.T.T.T.T.T.T.U.Y.v ~ S s./.T.T.T.U.T././.^.Q. .A ' L  .Y.T.T.T.T.T.T.T.T.T.T._.< . # @ ].].].].].",
"].].].].].].@ @ @ . y.`.U.T.T.T.T.T.T.T.T.T.U.U.v ~ S s./.T.T.T.T.T.T.^.b.d Y _ p $.T.^.T.T.T.T.T.T.T.T.U.`.y.X @ @ @ ].].].].].",
"].].].].].].].@ @ o & P./.T.T.T.T.T.T.T.T.T.U.Y.v ~ Z s./.T.T.T.T.T.^.g.w ~ ^ q r.T.N.m.W.T.T.T.T.T.T.U./.P.% o @ @ ].].].].].].",
"].].].].].].].@ @ #   , `.T.T.T.T.T.T.T.T.T.T.U.v ~ C s./.T.T.T.U./.v.7 ^ ~ j l._.s.7 8 r./.T.T.T.T.T.T._.,   $ @ @ ].].].].].].",
"].].].].].].].].@ @ @   3 _.T.T.T.T.T.T.T.T.U.Y.v ^ S s.^.T.T.T.T.Y.} ! W x C././.y.Y E q./.T.T.T.T.T.'.2   @ @ @ ].].].].].].].",
"].].].].].].].].].@ @ @   #.'.T.U.T.T.T.T.T./.T.v ~ Z f.^.T.T.T./.s.C _ M D.`./.`.r.D W y./.T.T.T.T.'.O.  @ @ @ ].].].].].].].].",
"].].].].].].].].].@ @ @ + . O.'./.U.T.T.T.T.N.x.l ^ Z e.M.I.T.T./...Q I o.N.b.b.B.+.I Y y./.T.U./._.O.. @ @ @ @ ].].].].].].].].",
"].].].].].].].].].].@ @ @ +   2 `.^.U.T.T.D.k C I ] ) C 8 p.^.T.L.v ^ ) C S S Z Z S _ P u.T.U.^.`.1   @ @ @ @ ].].].].].].].].].",
"].].].].].].].].].].].@ @ @ @   : H.`.T.T.S.7 K P D P U r w.^.T.Q.w a P U U U U U U D y i./._.G.:   @ @ @ @ ].].].].].].].].].].",
"].].].].].].].].].].].].@ @ @ @ . $ -.`.`.T.d.u.p.u.u.u.y.J.T.T.T.d.y.u.u.u.u.u.u.u.u.u.^.`.-.$   # @ @ @ ].].].].].].].].].].].",
"].].].].].].].].].].].].].].@ @ @ +   : i.`._./././././.^./.T.T.T./././././.T././.^._.'.a.:   + @ @ @ ].].].].].].].].].].].].].",
"].].].].].].].].].].].].].].].@ @ @ @ o o : 0.P._.^./.T.T.U.U.U.T.T.U.U.T.T./.^._.P.0.: o X @ @ @ @ ].].].].].].].].].].].].].].",
"].].].].].].].].].].].].].].].].@ @ @ # + o . % 1 y.G.^.`.`.`.`.^.`.`.`.`.^.G.y.1 % . o @ # @ @ @ ].].].].].].].].].].].].].].].",
"].].].].].].].].].].].].].].].].].].@ @ @ @ @ +     # ; 1 [ #.#.#.#.#.[ 1 ; $     O @ # @ @ @ ].].].].].].].].].].].].].].].].].",
"].].].].].].].].].].].].].].].].].].].].@ @ @ @ # @ + o     . . X .   .   o + @ # @ @ @ @ ].].].].].].].].].].].].].].].].].].].",
"].].].].].].].].].].].].].].].].].].].].].].@ @ @ @ @ @ @ # @ # @ # # @ @ @ @ @ @ @ @ ].].].].].].].].].].].].].].].].].].].].].",
"].].].].].].].].].].].].].].].].].].].].].].].].].].@ @ @ @ @ @ @ @ @ @ @ @ @ ].].].].].].].].].].].].].].].].].].].].].].].].].",
"].].].].].].].].].].].].].].].].].].].].].].].].].].].].].].@ @ @ @ @ ].].].].].].].].].].].].].].].].].].].].].].].].].].].].].",
"].].].].].].].].].].].].].].].].].].].].].].].].].].].].].].].].].].].].].].].].].].].].].].].].].].].].].].].].].].].].].].].]."
};
